<?xml version="1.0" encoding="UTF-8"?>
<svg width="1200" height="600" xmlns="http://www.w3.org/2000/svg" viewBox="0 0 1200 600" preserveAspectRatio="xMidYMid meet">
  <defs>
    <linearGradient id="gradSys1" x1="0%" y1="0%" x2="100%" y2="100%">
      <stop offset="0%" style="stop-color:#252B3D;stop-opacity:1" />
      <stop offset="50%" style="stop-color:#1C2333;stop-opacity:1" />
      <stop offset="100%" style="stop-color:#252B3D;stop-opacity:1" />
    </linearGradient>
  </defs>
  <rect width="1200" height="600" fill="url(#gradSys1)"/>
  <!-- Robotic Arms -->
  <rect x="100" y="400" width="120" height="8" fill="#CFE8FF" opacity="0.4" rx="4" transform="rotate(-20 160 404)"/>
  <rect x="980" y="400" width="120" height="8" fill="#CFE8FF" opacity="0.4" rx="4" transform="rotate(20 1040 404)"/>
  <circle cx="160" cy="404" r="12" fill="#3b82f6" opacity="0.5"/>
  <circle cx="1040" cy="404" r="12" fill="#06b6d4" opacity="0.5"/>
  <!-- Central Interface -->
  <circle cx="600" cy="250" r="80" fill="none" stroke="#CFE8FF" stroke-width="3" opacity="0.3"/>
  <circle cx="600" cy="250" r="60" fill="none" stroke="#CFE8FF" stroke-width="2" opacity="0.2"/>
  <path d="M 600 200 L 620 250 L 600 300 L 580 250 Z" fill="#CFE8FF" opacity="0.4"/>
  <!-- Server Infrastructure -->
  <rect x="200" y="100" width="200" height="120" fill="#3b82f6" opacity="0.1" rx="8"/>
  <rect x="200" y="100" width="200" height="40" fill="#3b82f6" opacity="0.2" rx="8"/>
  <rect x="800" y="100" width="200" height="120" fill="#06b6d4" opacity="0.1" rx="8"/>
  <rect x="800" y="100" width="200" height="40" fill="#06b6d4" opacity="0.2" rx="8"/>
  <rect x="200" y="380" width="200" height="120" fill="#a855f7" opacity="0.1" rx="8"/>
  <rect x="200" y="380" width="200" height="40" fill="#a855f7" opacity="0.2" rx="8"/>
  <rect x="800" y="380" width="200" height="120" fill="#22c55e" opacity="0.1" rx="8"/>
  <rect x="800" y="380" width="200" height="40" fill="#22c55e" opacity="0.2" rx="8"/>
  <!-- Text -->
  <text x="600" y="450" font-family="Arial, sans-serif" font-size="28" fill="#CFE8FF" text-anchor="middle" font-weight="bold">System Operations</text>
  <text x="600" y="480" font-family="Arial, sans-serif" font-size="16" fill="#E2E8F0" text-anchor="middle">تشغيل يعتمد على دمج الأتمتة بالمتابعة البشرية</text>
</svg>
